<svg xmlns="http://www.w3.org/2000/svg" xmlns:xlink="http://www.w3.org/1999/xlink" width="144" zoomAndPan="magnify" viewBox="0 0 108 107.999999" height="144" preserveAspectRatio="xMidYMid meet" version="1.0"><defs><filter x="0%" y="0%" width="100%" xlink:type="simple" xlink:actuate="onLoad" height="100%" id="id1" xlink:show="other"><feColorMatrix values="0 0 0 0 1 0 0 0 0 1 0 0 0 0 1 0 0 0 1 0" color-interpolation-filters="sRGB"/></filter><mask id="id2"><g filter="url(#id1)"><rect x="-10.8" width="129.6" fill="rgb(0%, 0%, 0%)" y="-10.8" height="129.599998" fill-opacity="0.2078"/></g></mask><clipPath id="id3"><path d="M 7 11 L 65 11 L 65 50 L 7 50 Z M 7 11 " clip-rule="nonzero"/></clipPath><clipPath id="id4"><path d="M 0.0390625 34.734375 L 55.84375 0.917969 L 80.71875 41.96875 L 24.917969 75.785156 Z M 0.0390625 34.734375 " clip-rule="nonzero"/></clipPath><clipPath id="id5"><path d="M 0.0390625 34.734375 L 55.84375 0.917969 L 80.71875 41.96875 L 24.917969 75.785156 Z M 0.0390625 34.734375 " clip-rule="nonzero"/></clipPath><clipPath id="id6"><path d="M 20 24 L 62 24 L 62 53 L 20 53 Z M 20 24 " clip-rule="nonzero"/></clipPath><clipPath id="id7"><path d="M 0.0390625 34.734375 L 55.84375 0.917969 L 80.71875 41.96875 L 24.917969 75.785156 Z M 0.0390625 34.734375 " clip-rule="nonzero"/></clipPath><clipPath id="id8"><path d="M 0.0390625 34.734375 L 55.84375 0.917969 L 80.71875 41.96875 L 24.917969 75.785156 Z M 0.0390625 34.734375 " clip-rule="nonzero"/></clipPath><clipPath id="id9"><path d="M 32 37 L 59 37 L 59 56 L 32 56 Z M 32 37 " clip-rule="nonzero"/></clipPath><clipPath id="id10"><path d="M 0.0390625 34.734375 L 55.84375 0.917969 L 80.71875 41.96875 L 24.917969 75.785156 Z M 0.0390625 34.734375 " clip-rule="nonzero"/></clipPath><clipPath id="id11"><path d="M 0.0390625 34.734375 L 55.84375 0.917969 L 80.71875 41.96875 L 24.917969 75.785156 Z M 0.0390625 34.734375 " clip-rule="nonzero"/></clipPath><clipPath id="id12"><path d="M 46 51 L 55 51 L 55 60 L 46 60 Z M 46 51 " clip-rule="nonzero"/></clipPath><clipPath id="id13"><path d="M 0.0390625 34.734375 L 55.84375 0.917969 L 80.71875 41.96875 L 24.917969 75.785156 Z M 0.0390625 34.734375 " clip-rule="nonzero"/></clipPath><clipPath id="id14"><path d="M 0.0390625 34.734375 L 55.84375 0.917969 L 80.71875 41.96875 L 24.917969 75.785156 Z M 0.0390625 34.734375 " clip-rule="nonzero"/></clipPath><clipPath id="id15"><rect x="0" width="81" y="0" height="76"/></clipPath><clipPath id="id16"><path d="M 19 25 L 80 25 L 80 67 L 19 67 Z M 19 25 " clip-rule="nonzero"/></clipPath><clipPath id="id17"><path d="M 11.3125 50.371094 L 70.324219 14.609375 L 96.367188 57.585938 L 37.355469 93.34375 Z M 11.3125 50.371094 " clip-rule="nonzero"/></clipPath><clipPath id="id18"><path d="M 11.3125 50.371094 L 70.324219 14.609375 L 96.367188 57.585938 L 37.355469 93.34375 Z M 11.3125 50.371094 " clip-rule="nonzero"/></clipPath><clipPath id="id19"><path d="M 32 39 L 76 39 L 76 70 L 32 70 Z M 32 39 " clip-rule="nonzero"/></clipPath><clipPath id="id20"><path d="M 11.3125 50.371094 L 70.324219 14.609375 L 96.367188 57.585938 L 37.355469 93.34375 Z M 11.3125 50.371094 " clip-rule="nonzero"/></clipPath><clipPath id="id21"><path d="M 11.3125 50.371094 L 70.324219 14.609375 L 96.367188 57.585938 L 37.355469 93.34375 Z M 11.3125 50.371094 " clip-rule="nonzero"/></clipPath><clipPath id="id22"><path d="M 45 52 L 73 52 L 73 73 L 45 73 Z M 45 52 " clip-rule="nonzero"/></clipPath><clipPath id="id23"><path d="M 11.3125 50.371094 L 70.324219 14.609375 L 96.367188 57.585938 L 37.355469 93.34375 Z M 11.3125 50.371094 " clip-rule="nonzero"/></clipPath><clipPath id="id24"><path d="M 11.3125 50.371094 L 70.324219 14.609375 L 96.367188 57.585938 L 37.355469 93.34375 Z M 11.3125 50.371094 " clip-rule="nonzero"/></clipPath><clipPath id="id25"><path d="M 60 67 L 69 67 L 69 77 L 60 77 Z M 60 67 " clip-rule="nonzero"/></clipPath><clipPath id="id26"><path d="M 11.3125 50.371094 L 70.324219 14.609375 L 96.367188 57.585938 L 37.355469 93.34375 Z M 11.3125 50.371094 " clip-rule="nonzero"/></clipPath><clipPath id="id27"><path d="M 11.3125 50.371094 L 70.324219 14.609375 L 96.367188 57.585938 L 37.355469 93.34375 Z M 11.3125 50.371094 " clip-rule="nonzero"/></clipPath></defs><path fill="rgb(38.819885%, 39.99939%, 94.509888%)" d="M 54 0 C 24.175781 0 0 24.175781 0 54 C 0 83.824219 24.175781 108 54 108 C 83.824219 108 108 83.824219 108 54 C 108 24.175781 83.824219 0 54 0 " fill-opacity="1" fill-rule="nonzero"/><g mask="url(#id2)"><g transform="matrix(1, 0, 0, 1, 15, 18)"><g clip-path="url(#id15)"><g clip-path="url(#id3)"><g clip-path="url(#id4)"><g clip-path="url(#id5)"><path fill="rgb(0%, 0%, 0%)" d="M 61.410156 12.820312 C 55.597656 11.367188 49.6875 11.09375 43.839844 12.011719 C 38.191406 12.898438 32.84375 14.855469 27.945312 17.824219 C 23.042969 20.796875 18.835938 24.632812 15.433594 29.226562 C 11.914062 33.984375 9.417969 39.351562 8.019531 45.175781 C 7.554688 47.125 8.75 49.097656 10.691406 49.585938 C 12.636719 50.074219 14.59375 48.886719 15.0625 46.9375 C 19.839844 27.046875 39.871094 14.90625 59.714844 19.878906 C 60.6875 20.121094 61.660156 19.945312 62.453125 19.46875 C 63.242188 18.988281 63.847656 18.207031 64.082031 17.230469 C 64.550781 15.28125 63.355469 13.308594 61.410156 12.820312 Z M 61.410156 12.820312 " fill-opacity="1" fill-rule="nonzero"/></g></g></g><g clip-path="url(#id6)"><g clip-path="url(#id7)"><g clip-path="url(#id8)"><path fill="rgb(0%, 0%, 0%)" d="M 34.816406 29.179688 C 27.667969 33.515625 22.648438 40.402344 20.683594 48.582031 C 20.238281 50.425781 21.371094 52.292969 23.210938 52.753906 C 25.046875 53.210938 26.894531 52.09375 27.339844 50.25 C 30.507812 37.058594 43.792969 29.007812 56.953125 32.304688 C 57.871094 32.535156 58.792969 32.367188 59.539062 31.914062 C 60.285156 31.460938 60.859375 30.722656 61.082031 29.800781 C 61.523438 27.957031 60.390625 26.09375 58.554688 25.632812 C 50.394531 23.589844 41.964844 24.851562 34.816406 29.183594 Z M 34.816406 29.179688 " fill-opacity="1" fill-rule="nonzero"/></g></g></g><g clip-path="url(#id9)"><g clip-path="url(#id10)"><g clip-path="url(#id11)"><path fill="rgb(0%, 0%, 0%)" d="M 41.265625 39.820312 C 36.917969 42.457031 33.867188 46.644531 32.671875 51.617188 C 32.230469 53.449219 33.355469 55.304688 35.183594 55.765625 C 37.011719 56.222656 38.851562 55.109375 39.292969 53.273438 C 40.878906 46.679688 47.523438 42.652344 54.105469 44.300781 C 55.019531 44.527344 55.933594 44.363281 56.679688 43.914062 C 57.421875 43.464844 57.992188 42.726562 58.210938 41.808594 C 58.652344 39.976562 57.527344 38.121094 55.699219 37.664062 C 50.738281 36.421875 45.613281 37.1875 41.265625 39.820312 Z M 41.265625 39.820312 " fill-opacity="1" fill-rule="nonzero"/></g></g></g><g clip-path="url(#id12)"><g clip-path="url(#id13)"><g clip-path="url(#id14)"><path fill="rgb(0%, 0%, 0%)" d="M 54.160156 53.125 C 54.304688 53.363281 54.421875 53.609375 54.519531 53.871094 C 54.613281 54.132812 54.683594 54.398438 54.726562 54.671875 C 54.765625 54.945312 54.785156 55.21875 54.773438 55.496094 C 54.761719 55.773438 54.722656 56.042969 54.660156 56.3125 C 54.59375 56.582031 54.503906 56.839844 54.390625 57.089844 C 54.273438 57.339844 54.136719 57.574219 53.972656 57.796875 C 53.8125 58.019531 53.628906 58.222656 53.425781 58.410156 C 53.226562 58.59375 53.007812 58.757812 52.773438 58.902344 C 52.539062 59.042969 52.292969 59.160156 52.03125 59.253906 C 51.773438 59.347656 51.507812 59.414062 51.238281 59.457031 C 50.964844 59.496094 50.691406 59.511719 50.417969 59.496094 C 50.144531 59.484375 49.871094 59.441406 49.605469 59.375 C 49.335938 59.308594 49.078125 59.214844 48.828125 59.097656 C 48.578125 58.980469 48.34375 58.839844 48.121094 58.675781 C 47.898438 58.511719 47.691406 58.324219 47.503906 58.121094 C 47.320312 57.917969 47.152344 57.695312 47.011719 57.457031 C 46.867188 57.222656 46.746094 56.972656 46.652344 56.710938 C 46.558594 56.453125 46.488281 56.1875 46.445312 55.914062 C 46.402344 55.640625 46.386719 55.363281 46.398438 55.089844 C 46.410156 54.8125 46.445312 54.539062 46.511719 54.273438 C 46.574219 54.003906 46.664062 53.746094 46.78125 53.496094 C 46.894531 53.246094 47.035156 53.007812 47.195312 52.785156 C 47.359375 52.5625 47.539062 52.359375 47.742188 52.175781 C 47.945312 51.988281 48.164062 51.824219 48.398438 51.683594 C 48.632812 51.539062 48.878906 51.421875 49.136719 51.328125 C 49.394531 51.234375 49.660156 51.167969 49.933594 51.128906 C 50.203125 51.085938 50.476562 51.074219 50.753906 51.085938 C 51.027344 51.101562 51.296875 51.140625 51.566406 51.207031 C 51.832031 51.273438 52.09375 51.367188 52.34375 51.484375 C 52.589844 51.601562 52.828125 51.746094 53.050781 51.910156 C 53.273438 52.074219 53.476562 52.257812 53.664062 52.464844 C 53.851562 52.667969 54.015625 52.886719 54.160156 53.125 Z M 54.160156 53.125 " fill-opacity="1" fill-rule="nonzero"/></g></g></g></g></g></g><g clip-path="url(#id16)"><g clip-path="url(#id17)"><g clip-path="url(#id18)"><path fill="rgb(100%, 100%, 100%)" d="M 76.136719 27.078125 C 70.015625 25.578125 63.78125 25.320312 57.609375 26.3125 C 51.652344 27.269531 46.003906 29.347656 40.820312 32.488281 C 35.636719 35.628906 31.179688 39.675781 27.574219 44.515625 C 23.839844 49.527344 21.183594 55.171875 19.679688 61.292969 C 19.175781 63.339844 20.429688 65.40625 22.476562 65.910156 C 24.527344 66.410156 26.59375 65.160156 27.097656 63.109375 C 32.226562 42.207031 53.410156 29.371094 74.316406 34.496094 C 75.339844 34.746094 76.367188 34.558594 77.203125 34.050781 C 78.039062 33.542969 78.683594 32.71875 78.933594 31.695312 C 79.4375 29.648438 78.183594 27.582031 76.136719 27.078125 Z M 76.136719 27.078125 " fill-opacity="1" fill-rule="nonzero"/></g></g></g><g clip-path="url(#id19)"><g clip-path="url(#id20)"><g clip-path="url(#id21)"><path fill="rgb(100%, 100%, 100%)" d="M 48.015625 44.378906 C 40.453125 48.960938 35.128906 56.214844 33.015625 64.808594 C 32.542969 66.746094 33.726562 68.699219 35.664062 69.175781 C 37.597656 69.648438 39.554688 68.464844 40.027344 66.527344 C 43.433594 52.664062 57.480469 44.152344 71.34375 47.550781 C 72.3125 47.789062 73.285156 47.609375 74.074219 47.132812 C 74.867188 46.652344 75.472656 45.871094 75.710938 44.90625 C 76.1875 42.96875 75 41.015625 73.066406 40.539062 C 64.46875 38.433594 55.574219 39.796875 48.011719 44.378906 Z M 48.015625 44.378906 " fill-opacity="1" fill-rule="nonzero"/></g></g></g><g clip-path="url(#id22)"><g clip-path="url(#id23)"><g clip-path="url(#id24)"><path fill="rgb(100%, 100%, 100%)" d="M 54.765625 55.515625 C 50.167969 58.300781 46.929688 62.714844 45.648438 67.9375 C 45.175781 69.863281 46.351562 71.808594 48.277344 72.28125 C 50.203125 72.753906 52.148438 71.574219 52.621094 69.648438 C 54.324219 62.714844 61.351562 58.457031 68.285156 60.15625 C 69.246094 60.394531 70.214844 60.214844 71 59.738281 C 71.785156 59.265625 72.390625 58.488281 72.628906 57.523438 C 73.101562 55.597656 71.921875 53.65625 69.996094 53.183594 C 64.769531 51.902344 59.363281 52.730469 54.765625 55.515625 Z M 54.765625 55.515625 " fill-opacity="1" fill-rule="nonzero"/></g></g></g><g clip-path="url(#id25)"><g clip-path="url(#id26)"><g clip-path="url(#id27)"><path fill="rgb(36.859131%, 9.01947%, 92.158508%)" d="M 68.300781 69.421875 C 68.453125 69.667969 68.578125 69.929688 68.675781 70.203125 C 68.773438 70.476562 68.847656 70.753906 68.890625 71.042969 C 68.933594 71.328125 68.949219 71.617188 68.9375 71.90625 C 68.925781 72.195312 68.882812 72.484375 68.8125 72.765625 C 68.746094 73.046875 68.648438 73.320312 68.527344 73.582031 C 68.402344 73.84375 68.253906 74.09375 68.082031 74.328125 C 67.910156 74.5625 67.71875 74.777344 67.503906 74.972656 C 67.289062 75.167969 67.058594 75.339844 66.8125 75.492188 C 66.5625 75.640625 66.304688 75.765625 66.03125 75.867188 C 65.757812 75.964844 65.476562 76.035156 65.191406 76.082031 C 64.902344 76.125 64.617188 76.140625 64.324219 76.128906 C 64.035156 76.113281 63.75 76.074219 63.46875 76.003906 C 63.1875 75.933594 62.914062 75.839844 62.652344 75.714844 C 62.386719 75.59375 62.140625 75.445312 61.90625 75.273438 C 61.671875 75.101562 61.457031 74.910156 61.261719 74.695312 C 61.066406 74.484375 60.890625 74.25 60.742188 74.003906 C 60.589844 73.753906 60.464844 73.496094 60.367188 73.222656 C 60.269531 72.949219 60.195312 72.667969 60.152344 72.382812 C 60.109375 72.097656 60.09375 71.808594 60.105469 71.519531 C 60.117188 71.226562 60.160156 70.941406 60.230469 70.660156 C 60.296875 70.378906 60.394531 70.105469 60.515625 69.84375 C 60.640625 69.582031 60.789062 69.332031 60.960938 69.097656 C 61.132812 68.863281 61.324219 68.648438 61.539062 68.453125 C 61.753906 68.257812 61.984375 68.085938 62.230469 67.933594 C 62.480469 67.785156 62.738281 67.660156 63.011719 67.558594 C 63.285156 67.460938 63.566406 67.386719 63.851562 67.34375 C 64.140625 67.300781 64.425781 67.285156 64.71875 67.296875 C 65.007812 67.308594 65.292969 67.351562 65.574219 67.421875 C 65.855469 67.488281 66.128906 67.585938 66.390625 67.707031 C 66.65625 67.832031 66.902344 67.976562 67.136719 68.148438 C 67.371094 68.320312 67.585938 68.515625 67.78125 68.726562 C 67.976562 68.941406 68.152344 69.171875 68.300781 69.421875 Z M 68.300781 69.421875 " fill-opacity="1" fill-rule="nonzero"/></g></g></g><path fill="rgb(38.819885%, 39.99939%, 94.509888%)" d="M 79.464844 101.339844 L 95.5 104.953125 L 93.28125 88.671875 L 79.464844 101.339844 " fill-opacity="1" fill-rule="nonzero"/></svg>