<svg xmlns="http://www.w3.org/2000/svg" xmlns:xlink="http://www.w3.org/1999/xlink" width="260" zoomAndPan="magnify" viewBox="0 0 194.87999 36.000001" height="48" preserveAspectRatio="xMidYMid meet" version="1.0"><defs><filter x="0%" y="0%" width="100%" xlink:type="simple" xlink:actuate="onLoad" height="100%" id="id1" xlink:show="other"><feColorMatrix values="0 0 0 0 1 0 0 0 0 1 0 0 0 0 1 0 0 0 1 0" color-interpolation-filters="sRGB"/></filter><g/><mask id="id2"><g filter="url(#id1)"><rect x="-19.487999" width="233.855988" fill="rgb(0%, 0%, 0%)" y="-3.6" height="43.200001" fill-opacity="0.2078"/></g></mask><clipPath id="id3"><path d="M 2 4 L 20 4 L 20 16 L 2 16 Z M 2 4 " clip-rule="nonzero"/></clipPath><clipPath id="id4"><path d="M 0.535156 11.136719 L 17.382812 0.925781 L 24.949219 13.40625 L 8.097656 23.617188 Z M 0.535156 11.136719 " clip-rule="nonzero"/></clipPath><clipPath id="id5"><path d="M 0.535156 11.136719 L 17.382812 0.925781 L 24.949219 13.40625 L 8.097656 23.617188 Z M 0.535156 11.136719 " clip-rule="nonzero"/></clipPath><clipPath id="id6"><path d="M 6 8 L 20 8 L 20 17 L 6 17 Z M 6 8 " clip-rule="nonzero"/></clipPath><clipPath id="id7"><path d="M 0.535156 11.136719 L 17.382812 0.925781 L 24.949219 13.40625 L 8.097656 23.617188 Z M 0.535156 11.136719 " clip-rule="nonzero"/></clipPath><clipPath id="id8"><path d="M 0.535156 11.136719 L 17.382812 0.925781 L 24.949219 13.40625 L 8.097656 23.617188 Z M 0.535156 11.136719 " clip-rule="nonzero"/></clipPath><clipPath id="id9"><path d="M 10 11 L 19 11 L 19 18 L 10 18 Z M 10 11 " clip-rule="nonzero"/></clipPath><clipPath id="id10"><path d="M 0.535156 11.136719 L 17.382812 0.925781 L 24.949219 13.40625 L 8.097656 23.617188 Z M 0.535156 11.136719 " clip-rule="nonzero"/></clipPath><clipPath id="id11"><path d="M 0.535156 11.136719 L 17.382812 0.925781 L 24.949219 13.40625 L 8.097656 23.617188 Z M 0.535156 11.136719 " clip-rule="nonzero"/></clipPath><clipPath id="id12"><path d="M 14 16 L 18 16 L 18 19 L 14 19 Z M 14 16 " clip-rule="nonzero"/></clipPath><clipPath id="id13"><path d="M 0.535156 11.136719 L 17.382812 0.925781 L 24.949219 13.40625 L 8.097656 23.617188 Z M 0.535156 11.136719 " clip-rule="nonzero"/></clipPath><clipPath id="id14"><path d="M 0.535156 11.136719 L 17.382812 0.925781 L 24.949219 13.40625 L 8.097656 23.617188 Z M 0.535156 11.136719 " clip-rule="nonzero"/></clipPath><clipPath id="id15"><rect x="0" width="25" y="0" height="24"/></clipPath><clipPath id="id16"><path d="M 8 9 L 27 9 L 27 22 L 8 22 Z M 8 9 " clip-rule="nonzero"/></clipPath><clipPath id="id17"><path d="M 6.421875 16.429688 L 23.894531 5.839844 L 31.839844 18.945312 L 14.363281 29.535156 Z M 6.421875 16.429688 " clip-rule="nonzero"/></clipPath><clipPath id="id18"><path d="M 6.421875 16.429688 L 23.894531 5.839844 L 31.839844 18.945312 L 14.363281 29.535156 Z M 6.421875 16.429688 " clip-rule="nonzero"/></clipPath><clipPath id="id19"><path d="M 12 13 L 26 13 L 26 23 L 12 23 Z M 12 13 " clip-rule="nonzero"/></clipPath><clipPath id="id20"><path d="M 6.421875 16.429688 L 23.894531 5.839844 L 31.839844 18.945312 L 14.363281 29.535156 Z M 6.421875 16.429688 " clip-rule="nonzero"/></clipPath><clipPath id="id21"><path d="M 6.421875 16.429688 L 23.894531 5.839844 L 31.839844 18.945312 L 14.363281 29.535156 Z M 6.421875 16.429688 " clip-rule="nonzero"/></clipPath><clipPath id="id22"><path d="M 16 17 L 25 17 L 25 24 L 16 24 Z M 16 17 " clip-rule="nonzero"/></clipPath><clipPath id="id23"><path d="M 6.421875 16.429688 L 23.894531 5.839844 L 31.839844 18.945312 L 14.363281 29.535156 Z M 6.421875 16.429688 " clip-rule="nonzero"/></clipPath><clipPath id="id24"><path d="M 6.421875 16.429688 L 23.894531 5.839844 L 31.839844 18.945312 L 14.363281 29.535156 Z M 6.421875 16.429688 " clip-rule="nonzero"/></clipPath><clipPath id="id25"><path d="M 21 21 L 24 21 L 24 25 L 21 25 Z M 21 21 " clip-rule="nonzero"/></clipPath><clipPath id="id26"><path d="M 6.421875 16.429688 L 23.894531 5.839844 L 31.839844 18.945312 L 14.363281 29.535156 Z M 6.421875 16.429688 " clip-rule="nonzero"/></clipPath><clipPath id="id27"><path d="M 6.421875 16.429688 L 23.894531 5.839844 L 31.839844 18.945312 L 14.363281 29.535156 Z M 6.421875 16.429688 " clip-rule="nonzero"/></clipPath></defs><g fill="rgb(41.958618%, 44.709778%, 50.19989%)" fill-opacity="1"><g transform="translate(45.233831, 23.643317)"><g><path d="M 3.449219 0 L 3.449219 -4.789062 L 6.894531 -4.789062 C 10.210938 -4.789062 11.585938 -6.765625 11.585938 -9.101562 L 11.585938 -9.117188 C 11.585938 -11.257812 10.359375 -13.25 6.894531 -13.25 L 0.898438 -13.25 L 0.898438 0 Z M 3.449219 -10.863281 L 6.632812 -10.863281 C 8.136719 -10.863281 8.96875 -10.261719 8.96875 -8.9375 L 8.96875 -8.921875 C 8.96875 -7.613281 8.121094 -7.042969 6.632812 -7.042969 L 3.449219 -7.042969 Z M 3.449219 -10.863281 "/></g></g></g><g fill="rgb(41.958618%, 44.709778%, 50.19989%)" fill-opacity="1"><g transform="translate(57.3817, 23.643317)"><g><path d="M 5.261719 -9.707031 C 4.066406 -9.707031 2.679688 -9.445312 1.976562 -9.164062 L 1.40625 -6.863281 C 2.433594 -7.269531 3.773438 -7.515625 4.707031 -7.515625 C 6.144531 -7.515625 6.960938 -7.089844 6.960938 -5.914062 L 6.960938 -5.570312 C 6.191406 -5.667969 5.523438 -5.703125 4.835938 -5.703125 C 2.269531 -5.703125 0.652344 -4.789062 0.652344 -2.792969 L 0.652344 -2.761719 C 0.652344 -0.554688 2.433594 0.261719 5.308594 0.261719 C 6.585938 0.261719 8.265625 0.0820312 9.558594 -0.195312 L 9.558594 -5.996094 C 9.558594 -8.773438 7.859375 -9.707031 5.261719 -9.707031 Z M 3.316406 -2.925781 C 3.316406 -3.757812 4.101562 -4.050781 5.40625 -4.050781 C 5.816406 -4.050781 6.4375 -4.003906 6.960938 -3.921875 L 6.960938 -1.894531 C 6.421875 -1.8125 5.847656 -1.765625 5.40625 -1.765625 C 4.085938 -1.765625 3.316406 -2.089844 3.316406 -2.890625 Z M 3.316406 -2.925781 "/></g></g></g><g fill="rgb(41.958618%, 44.709778%, 50.19989%)" fill-opacity="1"><g transform="translate(67.782497, 23.643317)"><g><path d="M 4.789062 0.210938 C 7.582031 0.210938 8.96875 -0.800781 8.96875 -2.828125 C 8.96875 -4.3125 7.988281 -5.226562 5.882812 -5.816406 L 5.210938 -5.996094 C 4.085938 -6.324219 3.628906 -6.550781 3.628906 -7.027344 C 3.628906 -7.546875 4.183594 -7.726562 5.128906 -7.726562 C 5.929688 -7.726562 7.058594 -7.546875 7.890625 -7.105469 L 8.644531 -8.921875 C 7.679688 -9.425781 6.242188 -9.738281 4.820312 -9.738281 C 2.386719 -9.738281 1.011719 -8.675781 1.011719 -6.945312 C 1.011719 -5.390625 1.894531 -4.476562 3.855469 -3.953125 L 4.738281 -3.726562 C 6.109375 -3.347656 6.421875 -3.136719 6.421875 -2.628906 C 6.421875 -1.945312 5.667969 -1.796875 4.558594 -1.796875 C 3.609375 -1.796875 2.46875 -2.007812 1.371094 -2.484375 L 0.667969 -0.605469 C 2.007812 -0.0507812 3.316406 0.210938 4.789062 0.210938 Z M 4.789062 0.210938 "/></g></g></g><g fill="rgb(41.958618%, 44.709778%, 50.19989%)" fill-opacity="1"><g transform="translate(77.399561, 23.643317)"><g><path d="M 4.789062 0.210938 C 7.582031 0.210938 8.96875 -0.800781 8.96875 -2.828125 C 8.96875 -4.3125 7.988281 -5.226562 5.882812 -5.816406 L 5.210938 -5.996094 C 4.085938 -6.324219 3.628906 -6.550781 3.628906 -7.027344 C 3.628906 -7.546875 4.183594 -7.726562 5.128906 -7.726562 C 5.929688 -7.726562 7.058594 -7.546875 7.890625 -7.105469 L 8.644531 -8.921875 C 7.679688 -9.425781 6.242188 -9.738281 4.820312 -9.738281 C 2.386719 -9.738281 1.011719 -8.675781 1.011719 -6.945312 C 1.011719 -5.390625 1.894531 -4.476562 3.855469 -3.953125 L 4.738281 -3.726562 C 6.109375 -3.347656 6.421875 -3.136719 6.421875 -2.628906 C 6.421875 -1.945312 5.667969 -1.796875 4.558594 -1.796875 C 3.609375 -1.796875 2.46875 -2.007812 1.371094 -2.484375 L 0.667969 -0.605469 C 2.007812 -0.0507812 3.316406 0.210938 4.789062 0.210938 Z M 4.789062 0.210938 "/></g></g></g><g fill="rgb(41.958618%, 44.709778%, 50.19989%)" fill-opacity="1"><g transform="translate(87.016625, 23.643317)"><g><path d="M 5.261719 -9.707031 C 4.066406 -9.707031 2.679688 -9.445312 1.976562 -9.164062 L 1.40625 -6.863281 C 2.433594 -7.269531 3.773438 -7.515625 4.707031 -7.515625 C 6.144531 -7.515625 6.960938 -7.089844 6.960938 -5.914062 L 6.960938 -5.570312 C 6.191406 -5.667969 5.523438 -5.703125 4.835938 -5.703125 C 2.269531 -5.703125 0.652344 -4.789062 0.652344 -2.792969 L 0.652344 -2.761719 C 0.652344 -0.554688 2.433594 0.261719 5.308594 0.261719 C 6.585938 0.261719 8.265625 0.0820312 9.558594 -0.195312 L 9.558594 -5.996094 C 9.558594 -8.773438 7.859375 -9.707031 5.261719 -9.707031 Z M 3.316406 -2.925781 C 3.316406 -3.757812 4.101562 -4.050781 5.40625 -4.050781 C 5.816406 -4.050781 6.4375 -4.003906 6.960938 -3.921875 L 6.960938 -1.894531 C 6.421875 -1.8125 5.847656 -1.765625 5.40625 -1.765625 C 4.085938 -1.765625 3.316406 -2.089844 3.316406 -2.890625 Z M 3.316406 -2.925781 "/></g></g></g><g fill="rgb(41.958618%, 44.709778%, 50.19989%)" fill-opacity="1"><g transform="translate(97.417423, 23.643317)"><g><path d="M 3.480469 0 L 3.480469 -7.269531 C 4.085938 -7.367188 4.671875 -7.433594 5.128906 -7.433594 C 6.339844 -7.433594 6.992188 -6.992188 6.992188 -5.816406 L 6.992188 0 L 9.574219 0 L 9.574219 -6.128906 C 9.574219 -8.9375 7.566406 -9.753906 5.246094 -9.753906 C 4.296875 -9.753906 2.449219 -9.542969 0.882812 -9.265625 L 0.882812 0 Z M 3.480469 0 "/></g></g></g><g fill="rgb(41.958618%, 44.709778%, 50.19989%)" fill-opacity="1"><g transform="translate(107.883526, 23.643317)"><g><path d="M 5.867188 0.261719 C 7.613281 0.261719 8.789062 0 10.128906 -0.652344 L 10.128906 -13.25 L 7.546875 -13.25 L 7.546875 -9.507812 C 6.976562 -9.640625 6.371094 -9.753906 5.765625 -9.753906 C 2.566406 -9.753906 0.667969 -7.648438 0.667969 -4.769531 L 0.667969 -4.738281 C 0.667969 -1.863281 2.664062 0.261719 5.867188 0.261719 Z M 5.867188 -2.058594 C 4.167969 -2.058594 3.269531 -3.234375 3.269531 -4.738281 L 3.269531 -4.769531 C 3.269531 -6.273438 4.167969 -7.433594 5.867188 -7.433594 C 6.4375 -7.433594 7.042969 -7.304688 7.546875 -7.1875 L 7.546875 -2.269531 C 7.042969 -2.140625 6.488281 -2.058594 5.867188 -2.058594 Z M 5.867188 -2.058594 "/></g></g></g><g fill="rgb(41.958618%, 44.709778%, 50.19989%)" fill-opacity="1"><g transform="translate(118.904776, 23.643317)"><g><path d="M 5.867188 0.261719 C 8.9375 0.261719 11.078125 -1.863281 11.078125 -4.753906 L 11.078125 -4.769531 C 11.078125 -7.648438 8.9375 -9.753906 5.867188 -9.753906 C 2.792969 -9.753906 0.667969 -7.648438 0.667969 -4.769531 L 0.667969 -4.753906 C 0.667969 -1.863281 2.808594 0.261719 5.867188 0.261719 Z M 5.867188 -2.058594 C 4.3125 -2.058594 3.269531 -3.234375 3.269531 -4.753906 L 3.269531 -4.789062 C 3.269531 -6.289062 4.296875 -7.433594 5.867188 -7.433594 C 7.449219 -7.433594 8.464844 -6.289062 8.464844 -4.789062 L 8.464844 -4.753906 C 8.464844 -3.234375 7.433594 -2.058594 5.867188 -2.058594 Z M 5.867188 -2.058594 "/></g></g></g><g fill="rgb(41.958618%, 44.709778%, 50.19989%)" fill-opacity="1"><g transform="translate(130.62812, 23.643317)"><g><path d="M 7.105469 0 L 7.105469 -10.847656 L 11.304688 -10.847656 L 11.304688 -13.25 L 0.328125 -13.25 L 0.328125 -10.847656 L 4.542969 -10.847656 L 4.542969 0 Z M 7.105469 0 "/></g></g></g><g fill="rgb(41.958618%, 44.709778%, 50.19989%)" fill-opacity="1"><g transform="translate(142.253499, 23.643317)"><g><path d="M 10.375 -4.378906 C 10.375 -7.726562 8.546875 -9.753906 5.539062 -9.753906 C 2.566406 -9.753906 0.652344 -7.695312 0.652344 -4.769531 L 0.652344 -4.753906 C 0.652344 -1.78125 2.695312 0.246094 5.847656 0.246094 C 7.679688 0.246094 8.96875 -0.328125 9.917969 -0.914062 L 8.789062 -2.925781 C 8.105469 -2.433594 7.105469 -2.027344 5.964844 -2.027344 C 4.542969 -2.027344 3.609375 -2.941406 3.347656 -4.148438 L 10.375 -4.148438 Z M 5.523438 -7.648438 C 6.78125 -7.648438 7.53125 -6.828125 7.726562 -5.75 L 3.367188 -5.75 C 3.609375 -6.828125 4.394531 -7.648438 5.523438 -7.648438 Z M 5.523438 -7.648438 "/></g></g></g><g fill="rgb(41.958618%, 44.709778%, 50.19989%)" fill-opacity="1"><g transform="translate(153.291085, 23.643317)"><g><path d="M 3.480469 0 L 3.480469 -7.285156 C 4.003906 -7.402344 4.476562 -7.449219 4.886719 -7.449219 C 5.898438 -7.449219 6.550781 -7.027344 6.550781 -5.832031 L 6.550781 0 L 9.132812 0 L 9.132812 -5.832031 C 9.132812 -6.8125 9.425781 -7.449219 10.703125 -7.449219 C 11.976562 -7.449219 12.269531 -6.8125 12.269531 -5.832031 L 12.269531 0 L 14.867188 0 L 14.867188 -6.128906 C 14.867188 -8.824219 13.382812 -9.769531 10.945312 -9.769531 C 9.589844 -9.769531 8.496094 -9.394531 7.828125 -8.511719 C 7.238281 -9.425781 6.191406 -9.769531 5 -9.769531 C 4.167969 -9.769531 2.484375 -9.574219 0.882812 -9.28125 L 0.882812 0 Z M 3.480469 0 "/></g></g></g><g fill="rgb(41.958618%, 44.709778%, 50.19989%)" fill-opacity="1"><g transform="translate(169.031071, 23.643317)"><g><path d="M 3.480469 3.59375 L 3.480469 -0.015625 C 4.050781 0.128906 4.65625 0.246094 5.261719 0.246094 C 8.445312 0.246094 10.359375 -1.863281 10.359375 -4.722656 L 10.359375 -4.753906 C 10.359375 -7.628906 8.347656 -9.753906 5.148438 -9.753906 C 3.398438 -9.753906 2.007812 -9.3125 0.882812 -8.855469 L 0.882812 3.59375 Z M 5.148438 -2.074219 C 4.589844 -2.074219 3.988281 -2.207031 3.480469 -2.335938 L 3.480469 -7.238281 C 3.988281 -7.367188 4.542969 -7.433594 5.148438 -7.433594 C 6.863281 -7.433594 7.746094 -6.273438 7.746094 -4.753906 L 7.746094 -4.722656 C 7.746094 -3.21875 6.863281 -2.074219 5.148438 -2.074219 Z M 5.148438 -2.074219 "/></g></g></g><g fill="rgb(41.958618%, 44.709778%, 50.19989%)" fill-opacity="1"><g transform="translate(180.052321, 23.643317)"><g><path d="M 5.867188 0.261719 C 8.9375 0.261719 11.078125 -1.863281 11.078125 -4.753906 L 11.078125 -4.769531 C 11.078125 -7.648438 8.9375 -9.753906 5.867188 -9.753906 C 2.792969 -9.753906 0.667969 -7.648438 0.667969 -4.769531 L 0.667969 -4.753906 C 0.667969 -1.863281 2.808594 0.261719 5.867188 0.261719 Z M 5.867188 -2.058594 C 4.3125 -2.058594 3.269531 -3.234375 3.269531 -4.753906 L 3.269531 -4.789062 C 3.269531 -6.289062 4.296875 -7.433594 5.867188 -7.433594 C 7.449219 -7.433594 8.464844 -6.289062 8.464844 -4.789062 L 8.464844 -4.753906 C 8.464844 -3.234375 7.433594 -2.058594 5.867188 -2.058594 Z M 5.867188 -2.058594 "/></g></g></g><path fill="rgb(38.819885%, 39.99939%, 94.509888%)" d="M 19.101562 1.398438 C 10.234375 1.398438 3.046875 8.585938 3.046875 17.453125 C 3.046875 26.320312 10.234375 33.507812 19.101562 33.507812 C 27.964844 33.507812 35.152344 26.320312 35.152344 17.453125 C 35.152344 8.585938 27.964844 1.398438 19.101562 1.398438 " fill-opacity="1" fill-rule="nonzero"/><g mask="url(#id2)"><g transform="matrix(1, 0, 0, 1, 7, 6)"><g clip-path="url(#id15)"><g clip-path="url(#id3)"><g clip-path="url(#id4)"><g clip-path="url(#id5)"><path fill="rgb(0%, 0%, 0%)" d="M 19.078125 4.542969 C 17.320312 4.09375 15.53125 4.007812 13.761719 4.28125 C 12.054688 4.546875 10.4375 5.132812 8.960938 6.03125 C 7.480469 6.925781 6.210938 8.085938 5.1875 9.480469 C 4.125 10.917969 3.375 12.546875 2.957031 14.3125 C 2.816406 14.902344 3.183594 15.503906 3.769531 15.652344 C 4.359375 15.804688 4.949219 15.445312 5.089844 14.855469 C 6.515625 8.820312 12.566406 5.15625 18.574219 6.683594 C 18.867188 6.757812 19.160156 6.707031 19.398438 6.5625 C 19.640625 6.417969 19.820312 6.179688 19.890625 5.882812 C 20.03125 5.292969 19.667969 4.691406 19.078125 4.542969 Z M 19.078125 4.542969 " fill-opacity="1" fill-rule="nonzero"/></g></g></g><g clip-path="url(#id6)"><g clip-path="url(#id7)"><g clip-path="url(#id8)"><path fill="rgb(0%, 0%, 0%)" d="M 11.050781 9.484375 C 8.890625 10.792969 7.378906 12.878906 6.792969 15.359375 C 6.660156 15.917969 7.003906 16.484375 7.558594 16.625 C 8.117188 16.765625 8.675781 16.429688 8.804688 15.871094 C 9.753906 11.871094 13.765625 9.4375 17.75 10.453125 C 18.027344 10.523438 18.304688 10.472656 18.53125 10.335938 C 18.757812 10.199219 18.929688 9.976562 18.996094 9.695312 C 19.128906 9.136719 18.785156 8.570312 18.226562 8.429688 C 15.757812 7.800781 13.207031 8.175781 11.046875 9.484375 Z M 11.050781 9.484375 " fill-opacity="1" fill-rule="nonzero"/></g></g></g><g clip-path="url(#id9)"><g clip-path="url(#id10)"><g clip-path="url(#id11)"><path fill="rgb(0%, 0%, 0%)" d="M 13.007812 12.71875 C 11.695312 13.515625 10.777344 14.78125 10.421875 16.289062 C 10.289062 16.847656 10.632812 17.410156 11.183594 17.550781 C 11.738281 17.691406 12.292969 17.355469 12.425781 16.800781 C 12.898438 14.800781 14.90625 13.582031 16.898438 14.089844 C 17.175781 14.160156 17.453125 14.109375 17.675781 13.976562 C 17.902344 13.839844 18.074219 13.617188 18.136719 13.335938 C 18.269531 12.78125 17.925781 12.21875 17.375 12.078125 C 15.871094 11.695312 14.324219 11.921875 13.007812 12.71875 Z M 13.007812 12.71875 " fill-opacity="1" fill-rule="nonzero"/></g></g></g><g clip-path="url(#id12)"><g clip-path="url(#id13)"><g clip-path="url(#id14)"><path fill="rgb(0%, 0%, 0%)" d="M 16.921875 16.769531 C 17.011719 16.914062 17.070312 17.070312 17.09375 17.238281 C 17.121094 17.40625 17.117188 17.570312 17.078125 17.734375 C 17.039062 17.898438 16.96875 18.050781 16.871094 18.1875 C 16.773438 18.320312 16.652344 18.433594 16.507812 18.519531 C 16.367188 18.605469 16.210938 18.660156 16.046875 18.6875 C 15.878906 18.710938 15.714844 18.703125 15.550781 18.660156 C 15.386719 18.621094 15.238281 18.546875 15.101562 18.445312 C 14.964844 18.34375 14.851562 18.222656 14.765625 18.078125 C 14.675781 17.929688 14.617188 17.773438 14.59375 17.605469 C 14.566406 17.4375 14.570312 17.273438 14.609375 17.109375 C 14.648438 16.945312 14.71875 16.792969 14.816406 16.660156 C 14.914062 16.523438 15.035156 16.410156 15.179688 16.324219 C 15.320312 16.238281 15.476562 16.183594 15.640625 16.15625 C 15.808594 16.132812 15.972656 16.140625 16.136719 16.183594 C 16.300781 16.226562 16.449219 16.296875 16.585938 16.398438 C 16.722656 16.5 16.835938 16.621094 16.921875 16.769531 Z M 16.921875 16.769531 " fill-opacity="1" fill-rule="nonzero"/></g></g></g></g></g></g><g clip-path="url(#id16)"><g clip-path="url(#id17)"><g clip-path="url(#id18)"><path fill="rgb(100%, 100%, 100%)" d="M 25.679688 9.636719 C 23.847656 9.15625 21.984375 9.054688 20.148438 9.332031 C 18.371094 9.597656 16.695312 10.203125 15.160156 11.132812 C 13.625 12.066406 12.3125 13.269531 11.253906 14.722656 C 10.160156 16.222656 9.386719 17.921875 8.964844 19.765625 C 8.820312 20.382812 9.203125 21.015625 9.816406 21.175781 C 10.429688 21.335938 11.042969 20.964844 11.183594 20.347656 C 12.632812 14.042969 18.90625 10.242188 25.164062 11.871094 C 25.472656 11.953125 25.777344 11.898438 26.027344 11.75 C 26.273438 11.601562 26.460938 11.351562 26.53125 11.042969 C 26.675781 10.425781 26.292969 9.796875 25.679688 9.636719 Z M 25.679688 9.636719 " fill-opacity="1" fill-rule="nonzero"/></g></g></g><g clip-path="url(#id19)"><g clip-path="url(#id20)"><g clip-path="url(#id21)"><path fill="rgb(100%, 100%, 100%)" d="M 17.355469 14.761719 C 15.117188 16.117188 13.554688 18.292969 12.957031 20.882812 C 12.824219 21.46875 13.183594 22.0625 13.765625 22.214844 C 14.34375 22.367188 14.921875 22.015625 15.058594 21.429688 C 16.019531 17.25 20.179688 14.730469 24.328125 15.8125 C 24.621094 15.886719 24.910156 15.835938 25.144531 15.695312 C 25.378906 15.554688 25.554688 15.320312 25.621094 15.027344 C 25.757812 14.445312 25.394531 13.847656 24.816406 13.695312 C 22.242188 13.027344 19.59375 13.402344 17.351562 14.761719 Z M 17.355469 14.761719 " fill-opacity="1" fill-rule="nonzero"/></g></g></g><g clip-path="url(#id22)"><g clip-path="url(#id23)"><g clip-path="url(#id24)"><path fill="rgb(100%, 100%, 100%)" d="M 19.414062 18.15625 C 18.050781 18.980469 17.101562 20.304688 16.738281 21.878906 C 16.605469 22.460938 16.964844 23.054688 17.542969 23.203125 C 18.121094 23.355469 18.695312 23.003906 18.828125 22.425781 C 19.308594 20.332031 21.390625 19.074219 23.464844 19.613281 C 23.753906 19.6875 24.042969 19.640625 24.273438 19.5 C 24.507812 19.359375 24.683594 19.125 24.753906 18.835938 C 24.886719 18.253906 24.527344 17.660156 23.949219 17.511719 C 22.386719 17.101562 20.773438 17.332031 19.414062 18.15625 Z M 19.414062 18.15625 " fill-opacity="1" fill-rule="nonzero"/></g></g></g><g clip-path="url(#id25)"><g clip-path="url(#id26)"><g clip-path="url(#id27)"><path fill="rgb(36.859131%, 9.01947%, 92.158508%)" d="M 23.507812 22.417969 C 23.601562 22.570312 23.660156 22.734375 23.691406 22.910156 C 23.71875 23.085938 23.714844 23.257812 23.671875 23.429688 C 23.632812 23.601562 23.5625 23.757812 23.460938 23.902344 C 23.359375 24.042969 23.234375 24.15625 23.085938 24.246094 C 22.9375 24.339844 22.777344 24.394531 22.605469 24.417969 C 22.433594 24.445312 22.261719 24.433594 22.089844 24.390625 C 21.921875 24.34375 21.765625 24.269531 21.621094 24.164062 C 21.480469 24.054688 21.363281 23.925781 21.269531 23.773438 C 21.175781 23.621094 21.117188 23.457031 21.085938 23.28125 C 21.058594 23.105469 21.0625 22.933594 21.101562 22.761719 C 21.144531 22.589844 21.214844 22.433594 21.316406 22.289062 C 21.417969 22.148438 21.542969 22.035156 21.691406 21.941406 C 21.839844 21.851562 22 21.796875 22.171875 21.769531 C 22.34375 21.746094 22.515625 21.757812 22.6875 21.800781 C 22.855469 21.84375 23.011719 21.921875 23.15625 22.027344 C 23.296875 22.132812 23.414062 22.265625 23.507812 22.417969 Z M 23.507812 22.417969 " fill-opacity="1" fill-rule="nonzero"/></g></g></g><path fill="rgb(38.819885%, 39.99939%, 94.509888%)" d="M 28.4375 29.53125 L 33.542969 30.785156 L 32.738281 25.585938 L 28.4375 29.53125 " fill-opacity="1" fill-rule="nonzero"/></svg>